/* XPM */
static char * clip_folder_file_xpm[] = {
"32 32 8 1",
" 	s background	c None",
".	c #7DF77DF77DF7",
"X	c white",
"o	c black",
"O	c #820782078207",
"+	c #BEFBBEFBBEFB",
"@	c #CF3CCF3CFFFF",
"#	c #9E799E79FFFF",
"    ..................          ",
"    .XXXXXXXXXXXXXXXX.o         ",
"    .XoooooXXXXXXXXXX..o        ",
"    .oOOOOOoXXXXXXXXX.+.o       ",
"    oXOoooXOoXXXXXXXX.++.o      ",
"   oXOoXXXoXOoXXXXXXX.X++.o     ",
"   oXoXXXoooXOoXXXXXX.XX++.o    ",
"   oXoXXoXXOoXOoXXXXX.ooooooo   ",
"   oXoXoXXoXOoXOoXXXXX++++++o   ",
"   oXoXoXoXoXOoXOoXXXX++++++o   ",
"  ooXOooXoXXoXOoXOoXXXXXXXX+o   ",
" o@@oXOoXOoXXoXOoXOoXXXXXXX+oo  ",
"o@@@.oXOoXOoXXoXOoXOoXXXXXX+o@o ",
"oXXX.XoXOoXOoXXoXOoXOoXXXXX+oXo ",
"oX@X.XXoXOoXOoXXoXOoXOoXXXX+o#o ",
"o@X@.XXXoXOoXOoXXoXOoXOoXXX+o#o ",
"oX@X.XXXXoXOoXOoXXoXOoXOoXX+o#o ",
"o@X@.XXXXXoXOoXOoXXoXOooXXX+o#o ",
"oX@X.XXXXXXoXOoXOoXXoXOoXXX+o#o ",
"o@X@.XXXXXXXoXOoXOoXXoXOoXX+o#o ",
"oX@X.XXXXXXXXoXOoXOoXXoXOoX+o#o ",
"o@X@.XXXXXXXXXoXOooXXXXoXOo+o#o ",
"oX@X.XXXXXXXXXXoXOoXXXXXoXOoo#o ",
"o@X@.XXXXXXXXXXXoXOoXXXXXoOoo#o ",
"oX@X.XXXXXXXXXXXXoXOoXXXXoOoo#o ",
"o@X@.XXXXXXXXXXXXXoXOoXXXoOoo#o ",
"oX@X.XXXXXXXXXXXXXXoXOoooOOoo#o ",
"o@X@.XXXXXXXXXXXXXXXoXXXXXo+o#o ",
"oX@XooooooooooooooooooooooX+o#o ",
"o@ooooooooooooooooooooooooX+o#o ",
"oX@X.+++++++++++++++++++++++o#o ",
"ooooooooooooooooooooooooooooooo "};
