/* XPM */
static char * clip_folder_xpm[] = {
"32 32 6 1",
" 	s background	c None",
".	c black",
"X	c #820782078207",
"o	c white",
"O	c #CF3CCF3CFFFF",
"+	c #9E799E79FFFF",
"                                ",
"                                ",
"      .....                     ",
"     .XXXXX.                    ",
"    .oX...oX.                   ",
"   .oX.   .oX.                  ",
"   .o.   ...oX.                 ",
"   .o....ooX.oX.                ",
"   .o.O.oo.oX.oX.               ",
"   .o.O.o.O.oX.oX.              ",
"  ..oX..o.OO.oX.oX.             ",
" .OO.oX.oX.OO.oX.oX...........  ",
".OOOO.oX.oX.OO.oX.oX.OOOOOOOOO. ",
".ooooo.oX.oX.oo.oX.oX.oooooooo. ",
".oOoOoO.oX.oX.Oo.oX.oX.oOoOoO+. ",
".OoOoOoO.oX.oX.Oo.oX.oX.oOoOo+. ",
".oOoOoOoO.oX.oX.Oo.oX.oX.oOoO+. ",
".OoOoOoOoO.oX.oX.Oo.oX..oOoOo+. ",
".oOoOoOoOoO.oX.oX.Oo.oX.OoOoO+. ",
".OoOoOoOoOoO.oX.oX.Oo.oX.OoOo+. ",
".oOoOoOoOoOoO.oX.oX.Oo.oX.OoO+. ",
".OoOoOoOoOoOoO.oX..OoOo.oX.Oo+. ",
".oOoOoOoOoOoOoO.oX.oOoOo.oX.O+. ",
".OoOoOoOoOoOoOoO.oX.oOoOo.X.o+. ",
".oOoOoOoOoOoOoOoO.oX.oOoO.X.O+. ",
".OoOoOoOoOoOoOoOoO.oX.oOo.X.o+. ",
".oOoOoOoOoOoOoOoOoO.oX...XX.O+. ",
".OoOoOoOoOoOoOoOoOoO.ooooo.Oo+. ",
".oOo......................OoO+. ",
".O........................oOo+. ",
".oOoOoOoOoOoOoOoOoOoOoOoOoOoO+. ",
"............................... "};
