/* XPM */
static char * clip_file_xpm[] = {
"32 32 6 1",
" 	s background	c None",
".	c #7DF77DF77DF7",
"X	c white",
"o	c black",
"O	c #820782078207",
"+	c #BEFBBEFBBEFB",
"    ..................          ",
"    .XXXXXXXXXXXXXXXX.o         ",
"    .XoooooXXXXXXXXXX..o        ",
"    .oOOOOOoXXXXXXXXX.+.o       ",
"    oXOoooXOoXXXXXXXX.++.o      ",
"   oXOoXXXoXOoXXXXXXX.X++.o     ",
"   oXoXXXoooXOoXXXXXX.XX++.o    ",
"   oXoXXoXXOoXOoXXXXX.ooooooo   ",
"   oXoXoXXoXOoXOoXXXXX++++++o   ",
"   oXoXoXoXoXOoXOoXXXX++++++o   ",
"   oXOooXoXXoXOoXOoXXXXXXXX+o   ",
"    oXOoXOoXXoXOoXOoXXXXXXX+o   ",
"    .oXOoXOoXXoXOoXOoXXXXXX+o   ",
"    .XoXOoXOoXXoXOoXOoXXXXX+o   ",
"    .XXoXOoXOoXXoXOoXOoXXXX+o   ",
"    .XXXoXOoXOoXXoXOoXOoXXX+o   ",
"    .XXXXoXOoXOoXXoXOoXOoXX+o   ",
"    .XXXXXoXOoXOoXXoXOooXXX+o   ",
"    .XXXXXXoXOoXOoXXoXOoXXX+o   ",
"    .XXXXXXXoXOoXOoXXoXOoXX+o   ",
"    .XXXXXXXXoXOoXOoXXoXOoX+o   ",
"    .XXXXXXXXXoXOooXXXXoXOo+o   ",
"    .XXXXXXXXXXoXOoXXXXXoXOoo   ",
"    .XXXXXXXXXXXoXOoXXXXXoOoo   ",
"    .XXXXXXXXXXXXoXOoXXXXoOoo   ",
"    .XXXXXXXXXXXXXoXOoXXXoOoo   ",
"    .XXXXXXXXXXXXXXoXOoooOOoo   ",
"    .XXXXXXXXXXXXXXXoXXXXXo+o   ",
"    ooooooooooooooooooooooX+o   ",
"  ooooooooooooooooooooooooX+o   ",
"    .+++++++++++++++++++++++o   ",
"    ooooooooooooooooooooooooo   "};
