/* XPM */
static char * image_name[] = {
"32 32 17 1",
" 	c None",
".	c #79E77DF779E7",
"X	c #FFFFFFFFFFFF",
"o	c #000000000000",
"O	c #BEFBBEFBBEFB",
"+	c #861786178617",
"@	c #AEBAAAAAAEBA",
"#	c #79E779E779E7",
"$	c #492449244924",
"%	c #DF7DDB6CDF7D",
"&	c #F7DEF3CEF7DE",
"*	c #C71BC30BC71B",
"=	c #CF3CCF3CCF3C",
"-	c #FFFFFFFFD75C",
";	c #FFFF8E3869A6",
":	c #514455555144",
">	c #FFFFD75C8E38",
"    ..................          ",
"    .XXXXXXXXXXXXXXXX.o         ",
"    .XXXXXXXXXXXXXXXX..o        ",
"    .XXXXXXXXXXXXXXXX.O.o       ",
"    .XXXXXXXXXXXXXXXX.OO.o      ",
"    .XXXXXXX++++++XXX.XOO.o     ",
"    .XXXX@+#oooooo###.XXOO.o    ",
"    .XXX@oo$%%&%%%$oo#ooooooo   ",
"    .XX@o$%%&X&%%%%*$o#OOOOOo   ",
"    .X@o+%%&XXX&%%%=*+o#OOOOo   ",
"    .@oo*%&XXX&%%%%%=*oo#XXOo   ",
"    .+o*%&XXX&%%%%%%==*o$XXOo   ",
"    +o+=$@XX@$$$%%%%==*+o$XOo   ",
"    +o*=$&X&---$$%%%==**o$XOo   ",
"    +o*=$&X&---$;$%%==**o$XOo   ",
"    +o*=$-&----$$$$===**o$XOo   ",
"    +o**:---------:==***o$XOo   ",
"    +o+*:>--------:==**+o$XOo   ",
"    .#o*#>>----->>:=***ooXXOo   ",
"    .#oo#;>>>>>>>>#***oooXXOo   ",
"    .X#o+;;;>>>>>;#**+ooXXXOo   ",
"    .XX#o$;;;;;;;;+*$ooXXXXOo   ",
"    .XXX#oo$=;;;;=$oooXXXXXOo   ",
"    .XXXX#:ooooooooooXXXXXXOo   ",
"    .XXXXXo:ooooooooXXXXXXXOo   ",
"    .XXXXXXX:oooooXXXXXXXXXOo   ",
"    .XXXXXXXX:oooXXXXXXXXXXOo   ",
"    .XXXXXXXX:oooXXXXXXXXXXOo   ",
"    .XXXXXXXX:oooXXXXXXXXXXOo   ",
"    .XXXXXXXX:oooXXXXXXXXXXOo   ",
"    .OOOOOOOO$oooOOOOOOOOOOOo   ",
"    oooooooooo$oooooooooooooo   "};
