#define xfm_filemsk_s_width 16
#define xfm_filemsk_s_height 16
static unsigned char xfm_filemsk_s_bits[] = {
   0xfc, 0x03, 0xfc, 0x07, 0xfc, 0x0f, 0xfc, 0x1f, 0xfc, 0x3f, 0xfc, 0x3f,
   0xfc, 0x7f, 0xfc, 0x7f, 0xfc, 0x7f, 0xfc, 0x7f, 0xfc, 0x7f, 0xfc, 0x7f,
   0xfc, 0x7f, 0xfc, 0x7f, 0xfc, 0x7f, 0xf8, 0x7f};
