#define xfm_suid_width 16
#define xfm_suid_height 16
static unsigned char xfm_suid_bits[] = {
   0x00, 0x00, 0x00, 0x5c, 0x00, 0x66, 0x00, 0x43, 0x00, 0x03, 0x00, 0x67,
   0x00, 0x3e, 0x00, 0x3c, 0x04, 0x76, 0x8c, 0xe3, 0xc8, 0xc0, 0x78, 0xc1,
   0x30, 0x63, 0x10, 0x3d, 0x00, 0x00, 0x00, 0x00};
