#define xfm_Suid_width 16
#define xfm_Suid_height 16
static unsigned char xfm_Suid_bits[] = {
   0x00, 0x00, 0x00, 0x5c, 0x00, 0x66, 0x00, 0x43, 0x00, 0x03, 0x00, 0x07,
   0x00, 0x1e, 0x00, 0x3c, 0x00, 0x70, 0x00, 0xe0, 0x00, 0xc0, 0x00, 0xc1,
   0x00, 0x63, 0x00, 0x3d, 0x00, 0x00, 0x00, 0x00};
