#define xfm_filesmsk_s_width 16
#define xfm_filesmsk_s_height 16
static unsigned char xfm_filesmsk_s_bits[] = {
   0xff, 0x00, 0xff, 0x01, 0xff, 0x03, 0xff, 0x07, 0xff, 0x0f, 0xff, 0x1f,
   0xff, 0x3f, 0xff, 0x3f, 0xff, 0x3f, 0xff, 0x3f, 0xff, 0x3f, 0xff, 0x3f,
   0xfe, 0x3f, 0xfe, 0x3f, 0xfc, 0x3f, 0xfc, 0x3f};
