#define xfm_exec_s_width 16
#define xfm_exec_s_height 16
static unsigned char xfm_exec_s_bits[] = {
   0xfc, 0x0f, 0x04, 0x14, 0x04, 0x24, 0x04, 0x44, 0x04, 0x7c, 0x04, 0xc0,
   0xf4, 0xdf, 0xd4, 0xd1, 0xd4, 0xd1, 0xf4, 0xdf, 0x14, 0xd0, 0x14, 0xd0,
   0xf4, 0xdf, 0x04, 0xc0, 0xfc, 0xff, 0xf8, 0xff};
