#define xfm_dirmsk_s_width 16
#define xfm_dirmsk_s_height 16
static unsigned char xfm_dirmsk_s_bits[] = {
   0x00, 0x0f, 0x80, 0x1f, 0x80, 0x1f, 0xfe, 0x3f, 0xff, 0x7f, 0xff, 0xff,
   0xff, 0xff, 0xff, 0xff, 0xff, 0xff, 0xff, 0xff, 0xff, 0xff, 0xff, 0xff,
   0xff, 0xff, 0xff, 0xff, 0xff, 0xff, 0xfe, 0xff};
