#define xfm_execmsk_s_width 16
#define xfm_execmsk_s_height 16
static unsigned char xfm_execmsk_s_bits[] = {
   0xfc, 0x0f, 0xfc, 0x1f, 0xfc, 0x3f, 0xfc, 0x7f, 0xfc, 0x7f, 0xfc, 0xff,
   0xfc, 0xff, 0xfc, 0xff, 0xfc, 0xff, 0xfc, 0xff, 0xfc, 0xff, 0xfc, 0xff,
   0xfc, 0xff, 0xfc, 0xff, 0xfc, 0xff, 0xf8, 0xff};
