#define xfm_file_s_width 16
#define xfm_file_s_height 16
static unsigned char xfm_file_s_bits[] = {
   0xfc, 0x03, 0x04, 0x05, 0x04, 0x09, 0x04, 0x11, 0x04, 0x21, 0x04, 0x3f,
   0x04, 0x60, 0x04, 0x60, 0x04, 0x60, 0x04, 0x60, 0x04, 0x60, 0x04, 0x60,
   0x04, 0x60, 0x04, 0x60, 0xfc, 0x7f, 0xf8, 0x7f};
