#define xfm_sticky_width 16
#define xfm_sticky_height 16
static unsigned char xfm_sticky_bits[] = {
   0x00, 0x00, 0x80, 0xff, 0x80, 0xcd, 0x80, 0x8c, 0x00, 0x0c, 0x00, 0x0c,
   0x00, 0x7c, 0x00, 0x1c, 0x04, 0x0e, 0x8c, 0x0d, 0xc8, 0x0c, 0x78, 0x0c,
   0x30, 0x0c, 0x10, 0x1e, 0x00, 0x00, 0x00, 0x00};
