#define xfm_noentry_s_width 16
#define xfm_noentry_s_height 16
static unsigned char xfm_noentry_s_bits[] = {
   0xe0, 0x07, 0x18, 0x18, 0xc4, 0x23, 0x32, 0x4c, 0x0a, 0x50, 0x09, 0x90,
   0xe5, 0xa7, 0xf5, 0xaf, 0xf5, 0xaf, 0xe5, 0xa7, 0x09, 0x90, 0x0a, 0x50,
   0x32, 0x4c, 0xc4, 0x23, 0x18, 0x18, 0xe0, 0x07};
