#define xfm_files_s_width 16
#define xfm_files_s_height 16
static unsigned char xfm_files_s_bits[] = {
   0xff, 0x00, 0x41, 0x01, 0x41, 0x02, 0xc1, 0x07, 0x01, 0x0a, 0x01, 0x1e,
   0x01, 0x2a, 0x01, 0x3a, 0x01, 0x2a, 0x01, 0x2a, 0x01, 0x2a, 0xff, 0x2b,
   0x02, 0x28, 0xfe, 0x2f, 0x04, 0x20, 0xfc, 0x3f};
