#define xfm_Sticky_width 16
#define xfm_Sticky_height 16
static unsigned char xfm_Sticky_bits[] = {
   0x00, 0x00, 0x80, 0xff, 0x80, 0xcd, 0x80, 0x8c, 0x00, 0x0c, 0x00, 0x0c,
   0x00, 0x0c, 0x00, 0x0c, 0x00, 0x0c, 0x00, 0x0c, 0x00, 0x0c, 0x00, 0x0c,
   0x00, 0x0c, 0x00, 0x1e, 0x00, 0x00, 0x00, 0x00};
