#define xfm_dir_s_width 16
#define xfm_dir_s_height 16
static unsigned char xfm_dir_s_bits[] = {
   0x00, 0x0f, 0x80, 0x10, 0x80, 0x10, 0xfe, 0x3f, 0x01, 0x40, 0x01, 0xc0,
   0x01, 0xc0, 0x01, 0xc0, 0x01, 0xc0, 0x01, 0xc0, 0x01, 0xc0, 0x01, 0xc0,
   0x01, 0xc0, 0x01, 0xc0, 0xff, 0xff, 0xfe, 0xff};
